<svg width="110" height="27" viewBox="0 0 110 27" fill="none" xmlns="http://www.w3.org/2000/svg">
<path d="M0.149414 20.7272V7.36868H3.59994V8.99777C3.78107 8.67195 4.01654 8.38233 4.30635 8.12892C4.59615 7.8755 4.91313 7.66734 5.25728 7.50443C5.61954 7.34152 5.99086 7.21482 6.37123 7.12431C6.76971 7.03381 7.15009 6.98855 7.51235 6.98855C8.43611 6.98855 9.24214 7.17861 9.93043 7.55874C10.6187 7.93886 11.1349 8.49094 11.4791 9.21498C12.0044 8.40043 12.6202 7.83025 13.3266 7.50443C14.033 7.16051 14.83 6.98855 15.7175 6.98855C16.3334 6.98855 16.9311 7.08811 17.5107 7.28722C18.0903 7.46823 18.6066 7.7669 19.0594 8.18322C19.5122 8.59954 19.8745 9.13352 20.1462 9.78516C20.4179 10.4187 20.5537 11.1789 20.5537 12.0659V20.7272H17.0488V12.799C17.0488 12.0749 16.8587 11.4776 16.4783 11.007C16.116 10.5183 15.5183 10.2739 14.6851 10.2739C13.9062 10.2739 13.2994 10.5364 12.8647 11.0613C12.43 11.5681 12.2127 12.1835 12.2127 12.9076V20.7272H8.6263V12.799C8.6263 12.0749 8.43611 11.4776 8.05574 11.007C7.67536 10.5183 7.07763 10.2739 6.26255 10.2739C5.46558 10.2739 4.84974 10.5273 4.41502 11.0341C3.98031 11.541 3.76296 12.1654 3.76296 12.9076V20.7272H0.149414Z" fill="#1E2E4F"/>
<path d="M23.3995 17.0889C23.3995 16.4916 23.4991 15.9667 23.6984 15.5141C23.9157 15.0435 24.2055 14.6362 24.5678 14.2923C24.93 13.9484 25.3466 13.6769 25.8176 13.4778C26.3066 13.2787 26.8319 13.1338 27.3934 13.0433L30.6809 12.5546C31.0613 12.5003 31.3239 12.3917 31.4688 12.2288C31.6137 12.0478 31.6862 11.8396 31.6862 11.6043C31.6862 11.1337 31.496 10.7264 31.1156 10.3825C30.7534 10.0386 30.1919 9.86661 29.4311 9.86661C28.6341 9.86661 28.0183 10.0838 27.5836 10.5183C27.167 10.9527 26.9315 11.4595 26.8772 12.0387L23.6712 11.3599C23.7255 10.835 23.8885 10.3101 24.1602 9.78516C24.4319 9.26023 24.8033 8.7896 25.2742 8.37328C25.7451 7.95696 26.3247 7.62209 27.013 7.36868C27.7013 7.09716 28.4983 6.9614 29.404 6.9614C30.4545 6.9614 31.3511 7.10621 32.0937 7.39583C32.8364 7.66734 33.4341 8.03841 33.8869 8.50904C34.3579 8.96156 34.6929 9.49554 34.8922 10.111C35.1095 10.7264 35.2182 11.369 35.2182 12.0387V18.6094C35.2182 18.9714 35.2363 19.3606 35.2726 19.7769C35.3088 20.1751 35.345 20.4919 35.3812 20.7272H32.0666C32.0303 20.5462 31.9941 20.3018 31.9579 19.9941C31.9398 19.6683 31.9307 19.3787 31.9307 19.1253C31.5866 19.6502 31.0885 20.1118 30.4364 20.51C29.8024 20.9082 28.9874 21.1073 27.9911 21.1073C27.2847 21.1073 26.6417 20.9897 26.0621 20.7544C25.5006 20.5372 25.0206 20.2475 24.6221 19.8855C24.2236 19.5054 23.9157 19.08 23.6984 18.6094C23.4991 18.1207 23.3995 17.6138 23.3995 17.0889ZM28.7519 18.4193C29.1323 18.4193 29.4945 18.3741 29.8387 18.2836C30.2009 18.175 30.5179 18.003 30.7896 17.7677C31.0613 17.5143 31.2786 17.1975 31.4417 16.8174C31.6047 16.4192 31.6862 15.9214 31.6862 15.3241V14.7267L28.6704 15.1883C28.1994 15.2607 27.801 15.4327 27.4749 15.7042C27.167 15.9576 27.013 16.3468 27.013 16.8717C27.013 17.2699 27.1579 17.6319 27.4477 17.9578C27.7376 18.2655 28.1723 18.4193 28.7519 18.4193Z" fill="#1E2E4F"/>
<path d="M43.2368 7.36868H45.9266V10.5726H43.2368V16.1658C43.2368 16.745 43.3636 17.1523 43.6172 17.3876C43.8889 17.6048 44.2874 17.7134 44.8127 17.7134C45.03 17.7134 45.2474 17.7044 45.4647 17.6863C45.6821 17.6682 45.836 17.641 45.9266 17.6048V20.5915C45.7636 20.6639 45.51 20.7363 45.1659 20.8087C44.8398 20.8811 44.4142 20.9173 43.8889 20.9173C42.5848 20.9173 41.5523 20.5553 40.7916 19.8312C40.0308 19.1072 39.6505 18.0935 39.6505 16.7903V10.5726H37.2324V7.36868H37.9116C38.618 7.36868 39.1342 7.16956 39.4603 6.77134C39.8044 6.35502 39.9765 5.84819 39.9765 5.25086V3.3774H43.2368V7.36868Z" fill="#1E2E4F"/>
<path d="M54.8679 10.301C54.397 10.301 53.9532 10.3825 53.5366 10.5454C53.1381 10.7083 52.7849 10.9527 52.477 11.2785C52.1691 11.5862 51.9246 11.9754 51.7434 12.446C51.5623 12.9166 51.4717 13.4506 51.4717 14.0479C51.4717 14.6453 51.5623 15.1793 51.7434 15.6499C51.9246 16.1205 52.1691 16.5187 52.477 16.8446C52.803 17.1704 53.1653 17.4147 53.5638 17.5776C53.9804 17.7406 54.4242 17.822 54.8951 17.822C55.3479 17.822 55.7464 17.7587 56.0905 17.6319C56.4528 17.4871 56.7607 17.3061 57.0143 17.0889C57.2679 16.8717 57.4671 16.6273 57.612 16.3558C57.7751 16.0843 57.8928 15.8218 57.9652 15.5684L61.1441 16.6273C60.9992 17.1885 60.7546 17.7406 60.4105 18.2836C60.0845 18.8085 59.6588 19.2882 59.1335 19.7226C58.6083 20.1389 57.9924 20.4738 57.286 20.7272C56.5796 20.9987 55.7826 21.1345 54.8951 21.1345C53.917 21.1345 52.9932 20.9625 52.1238 20.6186C51.2725 20.2566 50.5299 19.7588 49.8959 19.1253C49.262 18.4917 48.7638 17.7496 48.4016 16.8989C48.0393 16.03 47.8582 15.0797 47.8582 14.0479C47.8582 13.0162 48.0303 12.0659 48.3744 11.197C48.7367 10.3282 49.2257 9.58605 49.8416 8.97061C50.4755 8.33708 51.2091 7.84835 52.0423 7.50443C52.8936 7.14241 53.8083 6.9614 54.7864 6.9614C55.6921 6.9614 56.4981 7.09716 57.2045 7.36868C57.929 7.62209 58.5539 7.95696 59.0792 8.37328C59.6045 8.7896 60.0301 9.26928 60.3562 9.81231C60.6822 10.3553 60.9177 10.9074 61.0626 11.4686L57.8294 12.5546C57.6664 11.9935 57.3494 11.4776 56.8785 11.007C56.4256 10.5364 55.7555 10.301 54.8679 10.301Z" fill="#1E2E4F"/>
<path d="M67.4149 20.7272H63.8014V1.06952H67.4149V8.48189C67.8496 7.95696 68.4021 7.58589 69.0723 7.36868C69.7424 7.13336 70.3945 7.01571 71.0285 7.01571C71.8798 7.01571 72.6133 7.16051 73.2292 7.45013C73.8632 7.72164 74.3794 8.09272 74.7779 8.56334C75.1945 9.03397 75.5024 9.5951 75.7016 10.2467C75.9009 10.8984 76.0005 11.5862 76.0005 12.3103V20.7272H72.3869V12.9347C72.3869 12.1745 72.1877 11.541 71.7892 11.0341C71.4088 10.5273 70.7839 10.2739 69.9145 10.2739C69.1538 10.2739 68.556 10.5273 68.1213 11.0341C67.6866 11.5229 67.4511 12.1383 67.4149 12.8804V20.7272Z" fill="#1E2E4F"/>
<path d="M79.6679 7.36868H83.2815V21.8947C83.2815 22.5464 83.1819 23.1347 82.9826 23.6596C82.8015 24.2026 82.5298 24.6642 82.1675 25.0443C81.8053 25.4425 81.3615 25.7503 80.8362 25.9675C80.3291 26.1847 79.7495 26.2933 79.0974 26.2933C78.5721 26.2933 78.1193 26.248 77.7389 26.1575C77.3766 26.0851 77.1502 26.0308 77.0597 25.9946V22.9808C77.1865 23.017 77.3404 23.0442 77.5215 23.0623C77.7027 23.0985 77.92 23.1166 78.1736 23.1166C78.717 23.1166 79.0974 22.9717 79.3147 22.6821C79.5502 22.4106 79.6679 22.0305 79.6679 21.5418V7.36868ZM79.2332 2.97013C79.2332 2.33659 79.4506 1.80261 79.8853 1.36819C80.32 0.933765 80.8453 0.716553 81.4611 0.716553C82.0951 0.716553 82.6204 0.933765 83.037 1.36819C83.4717 1.80261 83.689 2.33659 83.689 2.97013C83.689 3.58556 83.4717 4.11049 83.037 4.54492C82.6204 4.96124 82.0951 5.1694 81.4611 5.1694C80.8453 5.1694 80.32 4.96124 79.8853 4.54492C79.4506 4.11049 79.2332 3.58556 79.2332 2.97013Z" fill="#1E2E4F"/>
<path d="M95.7629 12.5275C95.7448 12.2016 95.6723 11.8849 95.5455 11.5772C95.4369 11.2513 95.2557 10.9708 95.0021 10.7355C94.7667 10.482 94.4588 10.2829 94.0784 10.1381C93.7161 9.97522 93.2814 9.89377 92.7743 9.89377C92.3033 9.89377 91.8867 9.97522 91.5245 10.1381C91.1622 10.301 90.8543 10.5092 90.6007 10.7626C90.3471 11.016 90.1479 11.2966 90.003 11.6043C89.8762 11.912 89.8037 12.2197 89.7856 12.5275H95.7629ZM99.1319 16.8989C98.9689 17.4781 98.7063 18.0302 98.344 18.5551C97.9998 19.0619 97.5742 19.5054 97.067 19.8855C96.5599 20.2656 95.9621 20.5643 95.2738 20.7815C94.6037 21.0168 93.861 21.1345 93.0459 21.1345C92.1222 21.1345 91.2437 20.9806 90.4105 20.6729C89.5773 20.3471 88.8437 19.8765 88.2098 19.261C87.5758 18.6456 87.0687 17.8944 86.6883 17.0075C86.326 16.1205 86.1449 15.1159 86.1449 13.9936C86.1449 12.9257 86.326 11.9573 86.6883 11.0884C87.0505 10.2196 87.5305 9.48649 88.1283 8.88916C88.7441 8.27373 89.4505 7.8031 90.2475 7.47728C91.0445 7.13336 91.8686 6.9614 92.7199 6.9614C94.8029 6.9614 96.424 7.57684 97.5832 8.80771C98.7425 10.0386 99.3221 11.731 99.3221 13.885C99.3221 14.1385 99.313 14.3828 99.2949 14.6181C99.2768 14.8353 99.2678 14.962 99.2678 14.9983H89.7041C89.7222 15.4327 89.8218 15.8399 90.003 16.2201C90.2022 16.5821 90.4467 16.8989 90.7365 17.1704C91.0445 17.4419 91.3977 17.6591 91.7961 17.822C92.1946 17.9668 92.6203 18.0392 93.0731 18.0392C93.9244 18.0392 94.5855 17.8492 95.0565 17.469C95.5455 17.0889 95.8987 16.6002 96.1161 16.0029L99.1319 16.8989Z" fill="#1E2E4F"/>
<path d="M106.623 7.36868H109.313V10.5726H106.623V16.1658C106.623 16.745 106.75 17.1523 107.004 17.3876C107.276 17.6048 107.674 17.7134 108.199 17.7134C108.417 17.7134 108.634 17.7044 108.851 17.6863C109.069 17.6682 109.223 17.641 109.313 17.6048V20.5915C109.15 20.6639 108.897 20.7363 108.553 20.8087C108.226 20.8811 107.801 20.9173 107.276 20.9173C105.971 20.9173 104.939 20.5553 104.178 19.8312C103.417 19.1072 103.037 18.0935 103.037 16.7903V10.5726H100.619V7.36868H101.298C102.005 7.36868 102.521 7.16956 102.847 6.77134C103.191 6.35502 103.363 5.84819 103.363 5.25086V3.3774H106.623V7.36868Z" fill="#1E2E4F"/>
</svg>
